<?xml version="1.0" encoding="iso-8859-1"?>
<!-- Generator: Adobe Illustrator 19.0.0, SVG Export Plug-In . SVG Version: 6.00 Build 0)  -->
<svg version="1.1" id="Layer_1" xmlns="http://www.w3.org/2000/svg" xmlns:xlink="http://www.w3.org/1999/xlink" x="0px" y="0px"
	 viewBox="0 0 512.248 512.248" style="enable-background:new 0 0 512.248 512.248;" xml:space="preserve">
<g>
	<polygon style="fill:#9AA1A5;" points="427.048,48.234 378.814,61.158 365.891,12.924 414.124,0 	"/>
	<polygon style="fill:#BDC3C7;" points="202.292,400.915 171.714,383.26 162.021,347.085 198.196,337.392 228.775,355.047 
		238.468,391.223 	"/>
	<path style="fill:#9AA1A5;" d="M128.174,511.022l-14.76-8.519c-4.37-2.525-5.862-8.113-3.337-12.482l61.634-106.761l30.579,17.655
		l-61.634,106.761C138.132,512.046,132.544,513.547,128.174,511.022"/>
	<polygon style="fill:#BDC3C7;" points="360.841,162.908 299.684,127.597 348.235,43.506 409.393,78.816 	"/>
	<g>
		<path style="fill:#9AA1A5;" d="M507.911,84.727c-45.824,32.079-66.869,32.742-92.054,18.202l-15.289-8.828l-30.897,53.513
			l15.289,8.828c24.735,14.283,39.539,25.459,34.675,81.178c0,0,27.621,5.12,67.072-63.206S507.911,84.727,507.911,84.727"/>
		<path style="fill:#9AA1A5;" d="M304.096,119.953l-20.807-37.491c-2.595-4.661-2.542-10.337,0.124-14.954l10.178-17.638
			c4.193-7.256,13.48-9.746,20.736-5.553l25.079,14.477L304.096,119.953z"/>
	</g>
	<polygon style="fill:#BDC3C7;" points="85.2,48.234 133.434,61.158 146.357,12.924 98.123,0 	"/>
	<polygon style="fill:#9AA1A5;" points="309.955,400.915 340.534,383.26 350.227,347.085 314.051,337.392 283.473,355.047 
		273.78,391.223 	"/>
	<path style="fill:#BDC3C7;" d="M384.074,511.022l14.76-8.519c4.37-2.525,5.862-8.113,3.337-12.482L340.536,383.26l-30.579,17.655
		l61.634,106.761C374.116,512.046,379.704,513.547,384.074,511.022"/>
	<polygon style="fill:#9AA1A5;" points="151.407,162.908 212.564,127.597 164.012,43.506 102.855,78.816 	"/>
	<g>
		<path style="fill:#BDC3C7;" d="M4.336,84.727c45.824,32.079,66.869,32.742,92.054,18.202l15.289-8.828l30.897,53.513
			l-15.289,8.828c-24.735,14.283-39.539,25.459-34.675,81.178c0,0-27.622,5.12-67.072-63.206S4.336,84.727,4.336,84.727"/>
		<path style="fill:#BDC3C7;" d="M208.152,119.953l20.807-37.491c2.595-4.661,2.542-10.337-0.124-14.954l-10.178-17.638
			c-4.193-7.256-13.48-9.746-20.736-5.553l-25.079,14.477L208.152,119.953z"/>
	</g>
	<polygon style="fill:#9AA1A5;" points="228.775,355.046 229.014,355.929 345.555,154.078 314.968,136.422 198.761,337.718 	"/>
	<g>
		<polygon style="fill:#BDC3C7;" points="256.124,308.973 283.233,355.927 283.472,355.045 313.494,337.716 276.507,273.663 		"/>
		<polygon style="fill:#BDC3C7;" points="256.124,238.353 197.279,136.421 166.7,154.076 235.741,273.663 		"/>
	</g>
</g>
<g>
</g>
<g>
</g>
<g>
</g>
<g>
</g>
<g>
</g>
<g>
</g>
<g>
</g>
<g>
</g>
<g>
</g>
<g>
</g>
<g>
</g>
<g>
</g>
<g>
</g>
<g>
</g>
<g>
</g>
</svg>
