<?xml version="1.0" encoding="iso-8859-1"?>
<!-- Generator: Adobe Illustrator 19.0.0, SVG Export Plug-In . SVG Version: 6.00 Build 0)  -->
<svg version="1.1" id="Layer_1" xmlns="http://www.w3.org/2000/svg" xmlns:xlink="http://www.w3.org/1999/xlink" x="0px" y="0px"
	 viewBox="0 0 503.057 503.057" style="enable-background:new 0 0 503.057 503.057;" xml:space="preserve">
<g>
	<g>
		<path d="M500.561,403.933c-8.064-8.055-18.773-12.493-30.174-12.493c-5.41,0-10.65,1.075-15.539,2.987l-67.183-67.183
			L357.124,49.706l8.141-8.141c7.262-7.262,7.262-19.081,0-26.351l-9.856-9.856c-7.04-7.049-19.32-7.031-26.342,0l-29.065,29.065
			c-26.001,26.001-78.857,33.69-79.565,33.783c-21.555,2.85-42.906,12.348-63.804,28.006l-15.497-15.497
			c-5.436-5.444-14.942-5.444-20.361-0.009l-13.961,13.961L94.741,82.602l12.075-12.075c2.022-2.031,2.901-4.932,2.33-7.748
			c-0.58-2.807-2.526-5.146-5.197-6.212L43.601,32.434c-3.157-1.271-6.784-0.538-9.199,1.886c-2.415,2.415-3.157,6.033-1.894,9.207
			l24.141,60.339c1.067,2.662,3.405,4.617,6.212,5.188c0.572,0.12,1.143,0.179,1.715,0.179c2.244,0,4.412-0.887,6.033-2.5
			l12.066-12.066l12.066,12.066l-13.952,13.961c-2.714,2.714-4.216,6.332-4.216,10.172c0,3.849,1.502,7.467,4.216,10.18
			l15.505,15.505C80.636,177.45,71.138,198.8,68.279,220.355c-0.06,0.529-7.748,53.53-33.783,79.565L5.44,328.985
			c-7.253,7.262-7.253,19.089,0,26.342l9.856,9.856c3.635,3.635,8.405,5.453,13.167,5.453c4.779,0,9.549-1.818,13.175-5.453
			l8.149-8.141l277.547,30.549l67.174,67.174c-1.92,4.89-2.995,10.129-2.995,15.548c0,11.392,4.446,22.11,12.501,30.165
			c1.664,1.664,3.849,2.5,6.033,2.5c2.185,0,4.369-0.836,6.033-2.5l84.48-84.471C503.889,412.671,503.889,407.269,500.561,403.933z
			 M341.133,17.424c0.614-0.606,1.596-0.614,2.21,0l9.856,9.856c0.606,0.614,0.606,1.604,0,2.219L342.31,40.387
			c-0.324,0.307-0.666,0.572-0.93,0.922L330.167,52.53l-6.033-6.033l-6.033-6.042L341.133,17.424z M235.123,121.266
			c2.509-0.452,61.867-11.426,101.077-50.637l5.453-5.453l26.718,242.773l-26.231-26.232c-7.774-7.774-12.715-19.157-17.485-30.165
			c-3.823-8.823-7.441-17.161-12.518-23.868c-4.54-5.965-8.977-10.999-13.594-15.394c-12.382-11.776-27.366-18.85-40.585-25.096
			c-10.086-4.762-19.61-9.259-25.02-14.669l-22.153-22.161l-14.029-14.029C209.771,129.322,223.893,123.263,235.123,121.266z
			 M181.005,145.612c0.188-0.12,0.358-0.23,0.546-0.35l39.322,39.33c7.509,7.509,18.338,12.621,29.79,18.039
			c12.655,5.965,25.719,12.143,36.113,22.016c3.942,3.763,7.791,8.132,11.767,13.355c3.831,5.06,7.049,12.484,10.453,20.344
			c5.154,11.895,10.999,25.37,21.077,35.439l41.284,41.284l2.987,27.127L167.437,155.297
			C170.816,152.566,175.287,149.298,181.005,145.612z M130.948,94.668l12.297,12.288c-5.111,4.523-9.19,8.576-12.331,11.81
			l-12.032-12.032L130.948,94.668z M94.75,130.866l12.066-12.058l12.023,12.023c-3.234,3.149-7.279,7.228-11.81,12.331
			L94.75,130.866z M41.434,341.264c-0.444,0.324-0.776,0.742-1.152,1.152l-10.709,10.701c-0.606,0.606-1.579,0.623-2.21,0
			l-9.856-9.856c-0.606-0.606-0.606-1.604,0-2.21l23.023-23.031l6.042,6.033l6.033,6.033L41.434,341.264z M65.259,341.571
			l5.453-5.453c39.202-39.202,50.176-98.569,50.628-101.077c1.997-11.23,8.055-25.353,15.07-38.366l36.19,36.19
			c5.495,5.487,10.189,14.899,15.164,24.858c6.46,12.919,13.781,27.571,25.472,39.868c4.412,4.634,9.455,9.08,15.403,13.594
			c6.537,4.958,14.549,8.678,23.04,12.621c10.906,5.077,22.187,10.317,30.123,18.253l26.24,26.24L65.259,341.571z M293.867,329.992
			c-10.069-10.069-23.313-16.23-35.004-21.658c-7.629-3.55-14.831-6.895-19.908-10.744c-5.222-3.959-9.591-7.808-13.355-11.759
			c-9.933-10.445-16.35-23.305-22.571-35.738c-5.606-11.238-10.914-21.845-18.364-29.295l-39.322-39.33
			c0.145-0.23,0.29-0.452,0.435-0.683c1.476-2.278,2.893-4.412,4.233-6.315c0.094-0.128,0.188-0.265,0.273-0.393
			c1.493-2.116,2.901-4.002,4.181-5.641c0.026-0.026,0.051-0.051,0.068-0.085c0.307-0.384,0.538-0.631,0.836-0.998l206.908,206.916
			l-27.119-2.987L293.867,329.992z M404.015,440.14l-49.562-49.562l27.119,2.987l34.509,34.509L404.015,440.14z M428.147,416.008
			l-34.509-34.517l-2.987-27.128l49.57,49.57L428.147,416.008z"/>
	</g>
</g>
<g>
</g>
<g>
</g>
<g>
</g>
<g>
</g>
<g>
</g>
<g>
</g>
<g>
</g>
<g>
</g>
<g>
</g>
<g>
</g>
<g>
</g>
<g>
</g>
<g>
</g>
<g>
</g>
<g>
</g>
</svg>
