<?xml version="1.0" encoding="iso-8859-1"?>
<!-- Generator: Adobe Illustrator 19.0.0, SVG Export Plug-In . SVG Version: 6.00 Build 0)  -->
<svg version="1.1" id="Layer_1" xmlns="http://www.w3.org/2000/svg" xmlns:xlink="http://www.w3.org/1999/xlink" x="0px" y="0px"
	 viewBox="0 0 511.996 511.996" style="enable-background:new 0 0 511.996 511.996;" xml:space="preserve">
<g>
	<path style="fill:#F4BE8E;" d="M277.338,138.672h-42.663c-5.891,0-10.672,4.766-10.672,10.656v277.34
		c0,0.297,0.016,0.609,0.031,0.922c0.062,0.672,1.484,16.828,4.938,33.265c3.953,18.843,10.593,40.483,27.031,40.483
		c16.429,0,23.085-21.641,27.022-40.483c3.469-16.437,4.875-32.593,4.938-33.265c0.031-0.312,0.031-0.625,0.031-0.922V149.329
		C287.994,143.438,283.213,138.672,277.338,138.672z"/>
	<path style="fill:#F4BE8E;" d="M256.003,495.994c-9.703,0-16.625-11.516-21.812-36.233c-3.375-16.077-4.781-31.968-4.844-32.64
		c0-0.141-0.016-0.297-0.016-0.453V149.329c0-2.938,2.391-5.328,5.344-5.328h42.663c2.938,0,5.344,2.391,5.344,5.328v277.339
		c0,0.156-0.031,0.312-0.031,0.469c-0.062,0.656-1.469,16.547-4.844,32.624C272.619,484.478,265.689,495.994,256.003,495.994z"/>
</g>
<path style="fill:#FFD2A6;" d="M307.494,90.33c-1.969-2.938-5.281-4.703-8.812-4.703h-85.35c-3.547,0-6.859,1.766-8.828,4.703
	c-1.984,2.938-2.391,6.656-1.062,9.953l20.562,53.03h63.991l20.562-53.03C309.9,96.985,309.494,93.267,307.494,90.33z"/>
<path style="fill:#7F4545;" d="M277.338,74.658h-42.663c-5.891,0-10.672-4.766-10.672-10.656v-32c0-4.047,2.281-7.734,5.891-9.547
	l21.343-10.672c3-1.5,6.53-1.5,9.53,0l21.352,10.672c3.594,1.812,5.875,5.5,5.875,9.547v31.999
	C287.994,69.892,283.213,74.658,277.338,74.658z"/>
<g>
	<path style="fill:#ED5564;" d="M341.337,437.34c-5.906,0-10.656-4.781-10.656-10.672v-106.67c0-5.891,4.75-10.672,10.656-10.672
		c5.874,0,10.655,4.781,10.655,10.672v106.67C351.992,432.559,347.211,437.34,341.337,437.34z"/>
	<path style="fill:#ED5564;" d="M383.992,437.34c-5.875,0-10.656-4.781-10.656-10.672v-106.67c0-5.891,4.781-10.672,10.656-10.672
		c5.906,0,10.688,4.781,10.688,10.672v106.67C394.68,432.559,389.898,437.34,383.992,437.34z"/>
	<path style="fill:#ED5564;" d="M426.68,437.34c-5.906,0-10.688-4.781-10.688-10.672v-106.67c0-5.891,4.781-10.672,10.688-10.672
		c5.874,0,10.655,4.781,10.655,10.672v106.67C437.335,432.559,432.554,437.34,426.68,437.34z"/>
	<path style="fill:#ED5564;" d="M85.334,437.34c-5.891,0-10.672-4.781-10.672-10.672v-106.67c0-5.891,4.781-10.672,10.672-10.672
		s10.672,4.781,10.672,10.672v106.67C96.006,432.559,91.225,437.34,85.334,437.34z"/>
	<path style="fill:#ED5564;" d="M128.005,437.34c-5.89,0-10.671-4.781-10.671-10.672v-106.67c0-5.891,4.781-10.672,10.671-10.672
		c5.891,0,10.656,4.781,10.656,10.672v106.67C138.661,432.559,133.895,437.34,128.005,437.34z"/>
	<path style="fill:#ED5564;" d="M170.661,437.34c-5.875,0-10.656-4.781-10.656-10.672v-106.67c0-5.891,4.781-10.672,10.656-10.672
		c5.906,0,10.671,4.781,10.671,10.672v106.67C181.332,432.559,176.567,437.34,170.661,437.34z"/>
</g>
<path style="fill:#E6E9ED;" d="M256.003,309.326c-1.656,0-3.312-0.375-4.828-1.141l-210.48-106.67
	c-5.25-2.672-7.359-9.078-4.688-14.344c2.656-5.25,9.078-7.344,14.328-4.688L256.003,286.7l205.675-104.216
	c5.25-2.656,11.656-0.562,14.312,4.688c2.688,5.266,0.562,11.672-4.688,14.344l-210.473,106.67
	C259.314,308.951,257.658,309.326,256.003,309.326z"/>
<path style="fill:#434A54;" d="M266.674,277.326c0,5.891-4.781,10.672-10.671,10.672c-5.891,0-10.672-4.781-10.672-10.672
	s4.781-10.656,10.672-10.656C261.893,266.67,266.674,271.436,266.674,277.326z"/>
<path style="fill:#965353;" d="M502.396,166.187c-1.344-1.125-33.5-27.874-74.279-55.046
	C370.586,72.783,325.243,53.33,293.338,53.33h-74.663c-31.906,0-77.264,19.453-134.794,57.811
	c-40.765,27.172-72.936,53.921-74.28,55.03c-5.469,4.562-8.844,10.984-9.484,18.078c-0.656,7.094,1.5,14.016,6.062,19.484
	c5.078,6.109,12.562,9.593,20.5,9.593c6.219,0,12.281-2.188,17.062-6.172c0.312-0.266,31.531-26.171,69.718-51.64
	c66.14-44.093,95.607-48.858,105.217-48.858h74.663c9.594,0,38.999,4.75,104.967,48.702c38.312,25.531,69.654,51.53,69.967,51.796
	c4.781,3.984,10.844,6.172,17.062,6.172l0,0c7.938,0,15.406-3.5,20.5-9.593C515.24,192.437,513.709,175.593,502.396,166.187z"/>
<path style="opacity:0.1;fill:#FFFFFF;enable-background:new    ;" d="M9.601,176.843c1.344-1.125,33.515-27.858,74.28-55.03
	c57.53-38.358,102.889-57.812,134.794-57.812h74.663c31.905,0,77.248,19.453,134.779,57.812
	c40.779,27.172,72.936,53.905,74.279,55.03c4.844,4.031,7.906,9.438,9.062,15.188c1.875-9.312-1.25-19.359-9.062-25.844
	c-1.344-1.125-33.5-27.874-74.279-55.046C370.586,72.783,325.243,53.33,293.338,53.33h-74.663
	c-31.906,0-77.264,19.453-134.794,57.811c-40.765,27.172-72.936,53.921-74.28,55.03c-5.469,4.562-8.844,10.984-9.484,18.078
	c-0.25,2.641-0.094,5.25,0.422,7.781C1.726,186.093,4.882,180.781,9.601,176.843z"/>
<g>
</g>
<g>
</g>
<g>
</g>
<g>
</g>
<g>
</g>
<g>
</g>
<g>
</g>
<g>
</g>
<g>
</g>
<g>
</g>
<g>
</g>
<g>
</g>
<g>
</g>
<g>
</g>
<g>
</g>
</svg>
