<?xml version="1.0" encoding="iso-8859-1"?>
<!-- Generator: Adobe Illustrator 18.0.0, SVG Export Plug-In . SVG Version: 6.00 Build 0)  -->
<!DOCTYPE svg PUBLIC "-//W3C//DTD SVG 1.1//EN" "http://www.w3.org/Graphics/SVG/1.1/DTD/svg11.dtd">
<svg version="1.1" id="Capa_1" xmlns="http://www.w3.org/2000/svg" xmlns:xlink="http://www.w3.org/1999/xlink" x="0px" y="0px"
	 viewBox="0 0 472.684 472.684" style="enable-background:new 0 0 472.684 472.684;" xml:space="preserve">
<g>
	<path d="M199.225,425.25c-15.924-8.026-28.085-21.661-34.259-38.427c-0.28-0.741-0.544-1.499-0.796-2.255l-13.699-41.554
		c-1.945-5.91-4.607-11.592-7.908-16.881c-7.559-12.161-18.325-22-31.136-28.452c-1.667-0.84-3.692-0.416-4.881,1.022
		c-1.189,1.437-1.228,3.505-0.092,4.986c0.068,0.09,6.947,9.151,10.53,22.351c1.413,5.184,2.11,10.328,2.09,15.322
		C52.913,401.198,2.424,432.212,1.918,432.52c-1.386,0.845-2.124,2.443-1.868,4.046s1.455,2.892,3.034,3.263
		c0.659,0.155,6.311,1.404,16.64,1.404c20.661,0,60.032-5.014,115.528-33.768c19.607,17.142,38.358,26.028,54.858,26.028
		c2.749,0,5.439-0.247,8.058-0.742c1.685-0.318,2.979-1.675,3.218-3.372S200.755,426.021,199.225,425.25z M142.872,345.516
		l1.396,4.234c-44.968,35.669-76.092,51.917-94.59,59.291c19.299-14.452,46.004-35.65,76.054-62.915
		c4.089-3.709,8.275-7.567,12.485-11.506C140.074,338.117,141.637,341.764,142.872,345.516z M133.976,327.63
		c-2.438,2.287-4.867,4.546-7.278,6.769c-0.38-3.463-1.039-6.959-1.993-10.46c-1.043-3.841-2.331-7.362-3.672-10.475
		C125.966,317.555,130.321,322.321,133.976,327.63z M15.816,433.074c3.853-2.564,8.788-5.921,14.67-10.071
		c7.09-0.862,43.754-7.949,116.449-65.163l9.443,28.644c-7.428,4.468-14.856,8.676-22.124,12.5
		c-0.095,0.041-0.188,0.085-0.281,0.134C74.94,430.188,34.11,433.609,15.816,433.074z M142.841,403.454
		c5.436-2.951,10.933-6.092,16.437-9.381c5.408,12.32,13.823,22.935,24.47,30.946C169.019,422.779,154.35,413.148,142.841,403.454z"
		/>
	<path d="M470.102,47.353c-4.007-8.459-12.373-14.015-21.68-15.013c-74.162-7.955-142.996,38.109-163.897,109.761l-9.189,31.504
		c-0.769,0.569-1.517,1.147-2.247,1.732c-0.173-0.133-0.351-0.256-0.522-0.392l-30.715-24.377
		c-10.246-8.133-25.2-6.414-33.334,3.834s-6.413,25.202,3.835,33.336l0.772,0.612c6.912,5.487,17.004,4.326,22.489-2.587
		c0.464-0.584,0.862-1.198,1.232-1.823c7.246,0.945,14.046,3.712,19.834,8.043c-3.925,5.15-7.976,10.368-12.092,15.564
		c-16.932,21.367-35.013,42.466-53.76,62.771c-15.887-9.828-30.645-13.544-43.901-11.041c-1.684,0.318-2.979,1.675-3.218,3.372
		c-0.239,1.698,0.63,3.359,2.16,4.13c11.566,5.83,21.283,14.737,28.097,25.752c2.888,4.691,5.226,9.718,6.949,14.94l13.71,41.548
		c1.43,4.325,3.237,8.544,5.378,12.547c7.631,14.192,19.271,25.528,33.664,32.781c0.572,0.288,1.187,0.427,1.795,0.427
		c1.161,0,2.3-0.506,3.08-1.446c1.19-1.434,1.231-3.502,0.102-4.984c-0.069-0.091-6.974-9.24-10.525-22.346
		c-1.74-6.386-2.39-12.659-1.965-18.678c23.694-18.931,47.999-40.811,72.268-65.07c0.993-0.994,1.394-2.435,1.053-3.798
		c-2.622-10.499-2.516-21.784,0.3-31.779c1.533-5.459,3.852-10.398,6.882-14.748c7.775,4.944,13.666,12.215,16.896,20.833
		c-0.525,0.502-1.032,1.029-1.496,1.614c-5.487,6.914-4.327,17.003,2.586,22.489l0.773,0.614c4.354,3.455,9.557,5.132,14.726,5.132
		c6.997,0,13.932-3.073,18.609-8.966c3.94-4.964,5.711-11.166,4.986-17.461c-0.724-6.296-3.856-11.934-8.821-15.874l-30.714-24.377
		c-2.329-1.849-4.409-3.936-6.226-6.208l21.569-23.801c2.39-2.635,3.94-5.716,4.64-8.949c0.155-0.717,0.297-1.438,0.489-2.146
		l4.818-17.813l0.252-0.078c9.682-3.002,17.266-10.579,20.278-20.258l0.116-0.374l0.358-0.111
		c9.689-3.005,17.273-10.594,20.274-20.284l0.106-0.344l0.345-0.107c9.676-3.001,17.256-10.569,20.273-20.24l0.125-0.399
		c7.81-2.59,14.247-8.268,17.88-15.522c4.801,3.892,10.891,6.028,17.113,5.919c7.44-0.119,14.528-3.389,19.448-8.973
		C473.051,68.306,474.691,57.04,470.102,47.353z M292.205,144.342c19.876-68.141,85.52-111.867,156.04-103.973
		c6.979,0.781,12.655,5.158,15.185,11.708c0.274,0.71,0.495,1.426,0.681,2.145c-6.213-2.689-16.518-6.155-29.781-7.02
		c-20.105-1.314-51.082,3.377-84.568,33.158c-34.767,30.914-47.932,61.036-52.814,81.319c-3.889,1.637-7.735,3.464-11.392,5.464
		L292.205,144.342z M244.989,219.849c0.423,8.643-0.453,23.355-7.599,42.553c-1.207,3.242-3.098,6.198-5.554,8.634
		c-14.192,14.08-28.112,27.308-41.502,39.444l-1.819-5.514c-1.594-4.828-3.666-9.501-6.163-13.942
		c3.838-4.002,7.807-8.207,12.084-12.809C211.979,259.328,228.95,239.727,244.989,219.849z M161.31,266.995
		c7.469,1.12,15.482,4.233,23.967,9.308c-2.535,2.707-4.977,5.291-7.352,7.779C173.275,277.557,167.679,271.791,161.31,266.995z
		 M208.75,360.767c3.107-2.319,6.223-4.69,9.336-7.1c0.219,4.739,0.988,9.567,2.313,14.431c1.043,3.85,2.334,7.377,3.678,10.496
		C218.021,373.585,212.848,367.581,208.75,360.767z M219.816,342.151c-4.909,3.901-9.875,7.731-14.815,11.433
		c-1.044-2.307-1.984-4.667-2.778-7.072l-9.15-27.73c15.135-13.626,30.963-28.661,47.114-44.768c0.795-0.793,1.646-1.541,2.548-2.21
		c21.223-15.753,39.477-20.334,48.031-21.664c-1.697,9.075-1.561,18.777,0.428,28.021
		C267.198,302.045,243.192,323.567,219.816,342.151z M292.912,241.779c-6.782,0.653-24.277,3.648-45.906,17.377
		c8.235-25.298,6.166-42.423,5.043-48.15c3.593-4.553,7.136-9.115,10.581-13.629l0.729,0.796
		c6.885,7.507,17.043,10.388,26.487,8.023c-0.132,8.265,3.54,16.155,10.072,21.413C296.975,231.886,294.621,236.623,292.912,241.779
		z M349.945,246.574c3.29,2.611,5.367,6.348,5.847,10.521c0.48,4.173-0.693,8.284-3.305,11.574
		c-5.391,6.792-15.304,7.934-22.096,2.542l-0.773-0.614c-3.458-2.745-4.038-7.792-1.294-11.25s7.789-4.04,11.251-1.294
		c1.729,1.373,4.247,1.083,5.619-0.646c1.374-1.73,1.084-4.247-0.646-5.62c-4.072-3.232-9.243-4.14-13.93-2.941
		c-4.258-10.601-11.942-19.405-21.997-25.07l-1.018-0.573c-7.838-4.416-11.513-13.521-8.938-22.141
		c0.468-1.567-0.065-3.262-1.347-4.278c-1.28-1.017-3.052-1.152-4.472-0.339c-7.808,4.465-17.511,2.954-23.591-3.677l-0.79-0.862
		c-7.8-8.505-18.119-13.989-29.409-15.73c0.104-4.837-1.955-9.667-6.028-12.899c-1.731-1.374-4.247-1.083-5.619,0.646
		c-1.374,1.73-1.084,4.247,0.646,5.62c3.458,2.745,4.038,7.792,1.294,11.25c-2.747,3.459-7.794,4.037-11.252,1.293l-0.772-0.612
		c-6.792-5.391-7.932-15.303-2.541-22.095c5.393-6.792,15.303-7.931,22.096-2.542l30.714,24.377
		c9.742,7.733,22.001,11.236,34.229,9.894c1.472,12.209,7.665,23.357,17.407,31.09L349.945,246.574z M333.62,180.547l-20.102,22.182
		c-2.487-5.021-3.886-10.583-4.023-16.345c-0.028-1.187-0.582-2.3-1.513-3.038c-0.929-0.738-2.139-1.025-3.302-0.783
		c-8.281,1.723-16.754,0.695-24.258-2.784c11.98-8.78,29.368-15.245,42.552-17.98c5.9-1.227,10.113,2.019,12.083,5.464
		C337.041,170.732,337.705,176.044,333.62,180.547z M340.222,160.673c-4.499-5.611-11.605-8.216-18.871-6.706
		c-4.68,0.971-9.865,2.392-15.182,4.206c0.6-2.032,1.3-4.157,2.086-6.347c25.41-5.89,32.173,0.228,33.703,2.405L340.222,160.673z
		 M348.088,149.048c-0.963-1.238-2.361-2.602-4.4-3.845c-6.89-4.2-17.585-4.961-31.827-2.304c1.013-2.257,2.122-4.568,3.352-6.935
		c21.536-10.856,40.134-4.155,46.91-0.907C359.824,141.62,354.66,146.769,348.088,149.048z M368.114,128.555l-0.705,0.219
		c-5.449-2.901-23.481-10.925-45.662-4.074c3.207-5.014,6.914-10.187,11.239-15.478c21.076-7.52,42.447,1.391,49.876,5.099
		C380.478,121.119,375.026,126.41,368.114,128.555z M388.852,107.816l-0.704,0.219c-5.56-3.019-24.513-12.121-45.962-9.232
		c3.655-3.849,7.639-7.735,11.984-11.642c17.182-5.887,40.927,3.027,49.354,6.643C401.1,100.496,395.689,105.695,388.852,107.816z
		 M408.722,87.346c-5.35-2.46-24.097-10.399-42.425-10.129c6.475-4.786,13.024-8.807,19.636-12.051
		c10.153-1.618,19.798-0.486,28.673,3.373c3.999,1.74,6.94,3.674,8.691,4.975C420.852,80.058,415.455,85.247,408.722,87.346z
		 M460.059,70.953c-3.484,3.954-8.305,6.178-13.573,6.263c-5.229,0.064-10.157-1.985-13.766-5.826l-1.881-2.002
		c-0.049-0.052-0.104-0.095-0.155-0.144l0.006-0.006c-0.501-0.481-9.132-8.546-24.204-11.613c8.89-2.182,17.867-3.013,26.904-2.467
		c15.183,0.916,26.265,5.657,30.808,7.941C463.503,65.935,462.114,68.62,460.059,70.953z"/>
	<path d="M272.009,213.524c-3.217,0-6.24,1.252-8.514,3.526c-2.274,2.274-3.527,5.298-3.527,8.514s1.253,6.24,3.526,8.514
		c2.274,2.274,5.298,3.527,8.515,3.527c3.216,0,6.239-1.252,8.515-3.527c4.693-4.694,4.693-12.333-0.001-17.028
		C278.248,214.776,275.225,213.524,272.009,213.524z M274.867,228.421c-0.764,0.763-1.778,1.184-2.857,1.184
		s-2.094-0.42-2.857-1.184c-0.764-0.763-1.184-1.778-1.184-2.857s0.42-2.094,1.184-2.857c0,0,0,0,0.001,0
		c0.763-0.763,1.777-1.183,2.856-1.183s2.094,0.42,2.856,1.183C276.442,224.283,276.442,226.846,274.867,228.421z"/>
</g>
<g>
</g>
<g>
</g>
<g>
</g>
<g>
</g>
<g>
</g>
<g>
</g>
<g>
</g>
<g>
</g>
<g>
</g>
<g>
</g>
<g>
</g>
<g>
</g>
<g>
</g>
<g>
</g>
<g>
</g>
</svg>
