<?xml version="1.0" encoding="iso-8859-1"?>
<!-- Generator: Adobe Illustrator 18.0.0, SVG Export Plug-In . SVG Version: 6.00 Build 0)  -->
<!DOCTYPE svg PUBLIC "-//W3C//DTD SVG 1.1//EN" "http://www.w3.org/Graphics/SVG/1.1/DTD/svg11.dtd">
<svg version="1.1" id="Capa_1" xmlns="http://www.w3.org/2000/svg" xmlns:xlink="http://www.w3.org/1999/xlink" x="0px" y="0px"
	 viewBox="0 0 476.886 476.886" style="enable-background:new 0 0 476.886 476.886;" xml:space="preserve">
<g>
	<linearGradient id="SVGID_1_" gradientUnits="userSpaceOnUse" x1="166.0242" y1="425.3372" x2="183.061" y2="395.8287">
		<stop  offset="0.0127" style="stop-color:#FFFFFF"/>
		<stop  offset="0.283" style="stop-color:#ED1C24"/>
		<stop  offset="0.3813" style="stop-color:#E81B23"/>
		<stop  offset="0.5003" style="stop-color:#D91A21"/>
		<stop  offset="0.6298" style="stop-color:#C1171D"/>
		<stop  offset="0.7669" style="stop-color:#9F1318"/>
		<stop  offset="0.9085" style="stop-color:#730E12"/>
		<stop  offset="1" style="stop-color:#530A0D"/>
	</linearGradient>
	<path style="fill:url(#SVGID_1_);" d="M186.583,413.279c0,7.62-6.2,13.82-13.81,13.82c-7.62,0-13.82-6.2-13.82-13.82
		c0-4.93,7.33-15.61,13.82-23.39C179.253,397.659,186.583,408.339,186.583,413.279z"/>
	<linearGradient id="SVGID_2_" gradientUnits="userSpaceOnUse" x1="22.1162" y1="406.2238" x2="258.1649" y2="269.941">
		<stop  offset="0" style="stop-color:#333333"/>
		<stop  offset="0.0523" style="stop-color:#323B3E;stop-opacity:0.9479"/>
		<stop  offset="0.3892" style="stop-color:#2E6B84;stop-opacity:0.6122"/>
		<stop  offset="0.6705" style="stop-color:#2B8DB7;stop-opacity:0.3318"/>
		<stop  offset="0.8823" style="stop-color:#2AA3D6;stop-opacity:0.1208"/>
		<stop  offset="1" style="stop-color:#29ABE2;stop-opacity:0.0034"/>
	</linearGradient>
	<path style="fill:url(#SVGID_2_);" d="M253.343,274.039c8.53,1.39,14.63,8.95,14.19,17.58l-0.34,6.68
		c-77.73,56.91-189.16,106.8-249,101.13c43.26-18.55,107.43-55.27,185.53-127.62c7.6-7.03,14.8-13.92,21.57-20.57
		c4.25,0.02,8.39,1.62,11.52,4.55c3.5,3.27,5.46,7.89,5.37,12.68v0.28c-0.04,1.99,1.39,3.7,3.36,4.02L253.343,274.039z
		 M234.203,287.669c1.67-1.45,1.84-3.98,0.39-5.65c-1.45-1.66-3.97-1.84-5.64-0.39c-46.21,40.21-113.59,76.21-114.27,76.57
		c-1.95,1.04-2.69,3.46-1.65,5.41c0.72,1.35,2.1,2.12,3.53,2.12c0.64,0,1.28-0.15,1.88-0.46
		C119.123,364.899,187.293,328.479,234.203,287.669z"/>
	<linearGradient id="SVGID_3_" gradientUnits="userSpaceOnUse" x1="232.3434" y1="239.2542" x2="301.3234" y2="239.2542">
		<stop  offset="0" style="stop-color:#333333"/>
		<stop  offset="0.0523" style="stop-color:#323B3E;stop-opacity:0.9479"/>
		<stop  offset="0.3892" style="stop-color:#2E6B84;stop-opacity:0.6122"/>
		<stop  offset="0.6705" style="stop-color:#2B8DB7;stop-opacity:0.3318"/>
		<stop  offset="0.8823" style="stop-color:#2AA3D6;stop-opacity:0.1208"/>
		<stop  offset="1" style="stop-color:#29ABE2;stop-opacity:0.0034"/>
	</linearGradient>
	<path style="fill:url(#SVGID_3_);" d="M295.083,201.469l6.24,10.23c-4.73,1.52-9.02,4.12-12.62,7.72
		c-5.98,5.98-9.28,13.94-9.28,22.41c-0.01,8.46,3.29,16.42,9.27,22.4c3.34,3.33,7.36,5.86,11.76,7.42
		c-7.71,6.83-16.07,13.67-24.93,20.43v-0.05c0.65-12.71-8.33-23.84-20.89-25.89l-4.6-0.74c-0.66-5.88-3.39-11.38-7.76-15.46
		c-2.85-2.66-6.26-4.59-9.93-5.68c27.19-27.19,46.29-49.22,53.57-57.83c0.16,0.27,4.99,8.19,4.99,8.19
		c-7.5,4.75-27.27,19.38-29.45,42.86c-0.21,2.2,1.41,4.15,3.61,4.35c0.12,0.01,0.25,0.02,0.37,0.02c2.05,0,3.79-1.56,3.98-3.63
		C271.243,218.579,288.593,205.649,295.083,201.469z"/>
	<linearGradient id="SVGID_4_" gradientUnits="userSpaceOnUse" x1="325.6904" y1="171.0135" x2="286.0462" y2="221.7558">
		<stop  offset="0" style="stop-color:#FF8015"/>
		<stop  offset="0.2122" style="stop-color:#FB7E15"/>
		<stop  offset="0.4183" style="stop-color:#EF7814"/>
		<stop  offset="0.6218" style="stop-color:#DC6E12"/>
		<stop  offset="0.8225" style="stop-color:#C16110"/>
		<stop  offset="1" style="stop-color:#A2510D"/>
	</linearGradient>
	<path style="fill:url(#SVGID_4_);" d="M383.553,218.869c4.31,6.54,5.8,14.37,4.2,22.04c-1.6,7.66-6.09,14.24-12.65,18.52
		c-6.63,4.32-14.53,5.77-22.25,4.07c-7.72-1.69-14.29-6.31-18.47-12.97l-41.02-67.24c-5.67-10.14-16.47-16.26-27.86-16.17
		c-0.31-3.6-1.49-7.1-3.49-10.24l-1.02-1.61c2.69,0.1,5.34,0.8,7.78,2.13c1.94,1.05,4.37,0.33,5.42-1.61
		c1.06-1.94,0.34-4.37-1.6-5.42c-12.41-6.75-28.01-2.15-34.76,10.26c-1.06,1.94-0.34,4.37,1.6,5.43c0.61,0.33,1.26,0.48,1.91,0.48
		c1.42,0,2.79-0.75,3.51-2.09c1.78-3.27,4.5-5.82,7.78-7.41l2.63,4.13c2.15,3.38,2.84,7.38,1.94,11.28c-0.89,3.9-3.26,7.2-6.67,9.29
		c-6.86,4.23-15.71,2.26-20.14-4.47l-2.21-3.36c-4.31-6.55-5.8-14.37-4.2-22.04c1.6-7.67,6.09-14.25,12.65-18.53
		c6.63-4.32,14.53-5.76,22.25-4.07c7.72,1.7,14.29,6.32,18.47,12.97l41.02,67.25c5.63,10.06,16.31,16.17,27.61,16.17
		c0.08,0,0.17-0.01,0.25-0.01c0.31,3.6,1.49,7.1,3.49,10.24l1.02,1.61c-2.69-0.1-5.34-0.8-7.78-2.12c-1.94-1.06-4.37-0.34-5.42,1.6
		c-1.06,1.94-0.34,4.37,1.6,5.42c3.81,2.08,7.99,3.13,12.21,3.13c2.44,0,4.89-0.35,7.3-1.06c6.56-1.93,11.98-6.31,15.25-12.33
		c1.06-1.94,0.34-4.37-1.6-5.42c-1.94-1.06-4.37-0.34-5.43,1.6c-1.78,3.27-4.49,5.82-7.78,7.41l-2.63-4.13
		c-2.14-3.37-2.83-7.38-1.93-11.28c0.89-3.89,3.26-7.19,6.67-9.29c6.86-4.22,15.71-2.26,20.14,4.47L383.553,218.869z"/>
	<linearGradient id="SVGID_5_" gradientUnits="userSpaceOnUse" x1="300.8534" y1="182.7992" x2="342.4734" y2="182.7992">
		<stop  offset="0" style="stop-color:#009CD4"/>
		<stop  offset="0.1502" style="stop-color:#0097CD"/>
		<stop  offset="0.3665" style="stop-color:#0089BA"/>
		<stop  offset="0.6229" style="stop-color:#00729B"/>
		<stop  offset="0.9078" style="stop-color:#005270"/>
		<stop  offset="1" style="stop-color:#004760"/>
	</linearGradient>
	<path style="fill:url(#SVGID_5_);" d="M342.473,178.939c-0.97,4.61-1.5,9.35-1.55,14.16c-0.08,7.66-4.73,14.57-11.69,17.59
		c-1.51-1.52-2.84-3.24-3.91-5.16c-0.02-0.05-0.05-0.1-0.08-0.14l-1.48-2.44l8.21-8.99c1.5-1.63,1.38-4.16-0.25-5.65
		c-1.63-1.49-4.16-1.38-5.65,0.25l-6.65,7.28l-4.44-7.27l9.52-10.78c1.47-1.66,1.31-4.19-0.35-5.65c-1.65-1.46-4.18-1.3-5.64,0.35
		l-7.89,8.93l-3.62-5.93l7.11-8.11c1.46-1.66,1.29-4.19-0.37-5.65c-1.66-1.45-4.19-1.29-5.64,0.37l-5.46,6.23l-1.79-2.92l6.74-10.5
		C322.613,158.289,338.023,174.079,342.473,178.939z"/>
	<linearGradient id="SVGID_6_" gradientUnits="userSpaceOnUse" x1="312.1234" y1="145.5942" x2="365.2634" y2="145.5942">
		<stop  offset="0" style="stop-color:#FF8015"/>
		<stop  offset="0.2122" style="stop-color:#FB7E15"/>
		<stop  offset="0.4183" style="stop-color:#EF7814"/>
		<stop  offset="0.6218" style="stop-color:#DC6E12"/>
		<stop  offset="0.8225" style="stop-color:#C16110"/>
		<stop  offset="1" style="stop-color:#A2510D"/>
	</linearGradient>
	<path style="fill:url(#SVGID_6_);" d="M365.263,139.269c-9.23,8.34-16.24,18.91-20.31,30.66c-6.68-6.73-19.33-17.98-32.83-22.09
		l17.03-26.58C344.703,123.039,359.073,133.949,365.263,139.269z"/>
	<linearGradient id="SVGID_7_" gradientUnits="userSpaceOnUse" x1="333.8734" y1="116.0492" x2="376.3033" y2="116.0492">
		<stop  offset="0" style="stop-color:#009CD4"/>
		<stop  offset="0.1502" style="stop-color:#0097CD"/>
		<stop  offset="0.3665" style="stop-color:#0089BA"/>
		<stop  offset="0.6229" style="stop-color:#00729B"/>
		<stop  offset="0.9078" style="stop-color:#005270"/>
		<stop  offset="1" style="stop-color:#004760"/>
	</linearGradient>
	<path style="fill:url(#SVGID_7_);" d="M376.303,131.049c-1.61,0.98-3.18,2.01-4.7,3.11c-5.75-5.13-20.5-16.94-37.73-20.26
		l10.23-15.96C351.093,102.829,367.583,115.439,376.303,131.049z"/>
	<linearGradient id="SVGID_8_" gradientUnits="userSpaceOnUse" x1="348.4234" y1="93.7042" x2="398.6557" y2="93.7042">
		<stop  offset="0" style="stop-color:#FF8015"/>
		<stop  offset="0.2122" style="stop-color:#FB7E15"/>
		<stop  offset="0.4183" style="stop-color:#EF7814"/>
		<stop  offset="0.6218" style="stop-color:#DC6E12"/>
		<stop  offset="0.8225" style="stop-color:#C16110"/>
		<stop  offset="1" style="stop-color:#A2510D"/>
	</linearGradient>
	<path style="fill:url(#SVGID_8_);" d="M374.483,60.139c23.26,26.49,24.38,52.68,24.15,60.21l-14.54,6.57
		c-0.25,0.12-0.49,0.24-0.74,0.35c-9.67-17.4-27.48-30.93-34.93-36.08l8.56-13.35C361.573,70.679,367.573,64.699,374.483,60.139z"/>
	<linearGradient id="SVGID_9_" gradientUnits="userSpaceOnUse" x1="381.5734" y1="83.4942" x2="414.7998" y2="83.4942">
		<stop  offset="0" style="stop-color:#009CD4"/>
		<stop  offset="0.1502" style="stop-color:#0097CD"/>
		<stop  offset="0.3665" style="stop-color:#0089BA"/>
		<stop  offset="0.6229" style="stop-color:#00729B"/>
		<stop  offset="0.9078" style="stop-color:#005270"/>
		<stop  offset="1" style="stop-color:#004760"/>
	</linearGradient>
	<path style="fill:url(#SVGID_9_);" d="M402.503,50.279c3.97,7.48,16.41,34.02,10.92,63.38l-6.75,3.05
		c-0.3-11.45-3.78-35.7-25.1-60.6C388.103,52.949,395.203,50.949,402.503,50.279z"/>
	<linearGradient id="SVGID_10_" gradientUnits="userSpaceOnUse" x1="445.7711" y1="61.3492" x2="468.8934" y2="61.3492">
		<stop  offset="0" style="stop-color:#ED1C24"/>
		<stop  offset="0.1372" style="stop-color:#E81B23"/>
		<stop  offset="0.303" style="stop-color:#D91A21"/>
		<stop  offset="0.4837" style="stop-color:#C1171D"/>
		<stop  offset="0.6749" style="stop-color:#9F1318"/>
		<stop  offset="0.8723" style="stop-color:#730E12"/>
		<stop  offset="1" style="stop-color:#530A0D"/>
	</linearGradient>
	<path style="fill:url(#SVGID_10_);" d="M465.503,53.169c4.52,4.51,4.52,11.85,0,16.36c-4.51,4.52-11.85,4.52-16.36,0
		c-0.56-0.56-1.05-1.16-1.47-1.8c-0.47-1.27-1-2.51-1.59-3.71c-0.89-3.78,0.12-7.92,3.06-10.85c2.25-2.26,5.22-3.39,8.18-3.39
		S463.253,50.909,465.503,53.169z"/>
	<linearGradient id="SVGID_11_" gradientUnits="userSpaceOnUse" x1="411.4134" y1="79.9242" x2="442.0053" y2="79.9242">
		<stop  offset="0" style="stop-color:#FF8015"/>
		<stop  offset="0.2122" style="stop-color:#FB7E15"/>
		<stop  offset="0.4183" style="stop-color:#EF7814"/>
		<stop  offset="0.6218" style="stop-color:#DC6E12"/>
		<stop  offset="0.8225" style="stop-color:#C16110"/>
		<stop  offset="1" style="stop-color:#A2510D"/>
	</linearGradient>
	<path style="fill:url(#SVGID_11_);" d="M441.873,78.079c1.21,13.03-5.99,25.41-17.91,30.81l-1.82,0.82
		c3.24-26.15-5.64-49.04-10.73-59.57c1.15,0.06,2.31,0.15,3.46,0.29c10.28,1.2,19.03,7.54,23.64,16.33
		c0.44,1.53,1.07,2.99,1.87,4.37C441.143,73.349,441.653,75.669,441.873,78.079z"/>
	<path d="M471.163,47.509c7.63,7.63,7.63,20.05,0,27.68c-3.81,3.82-8.83,5.72-13.84,5.72c-2.5,0-5-0.47-7.35-1.42
		c0.58,15.63-8.34,30.19-22.72,36.69l-39.86,18.03c-23.11,10.46-38.22,33.61-38.47,58.98c-0.09,9.16-4.83,17.58-12.27,22.53
		c3.22,1.38,6.75,2.06,10.34,1.9c1.53-5.6,5.04-10.34,10.02-13.4c10.57-6.51,24.19-3.48,31.01,6.89l2.22,3.36
		c5.48,8.33,7.38,18.3,5.34,28.07c-2.03,9.76-7.76,18.14-16.11,23.59c-6.13,4-13.13,6.07-20.26,6.07c-2.69,0-5.39-0.29-8.07-0.88
		c-9.84-2.16-18.2-8.05-23.56-16.58l-21.93-35.95c-4.27,1-8.14,3.13-11.29,6.28c-4.48,4.48-6.94,10.43-6.94,16.76
		c0,6.32,2.46,12.27,6.93,16.74c3.97,3.97,9.24,6.4,14.85,6.85c1.59,0.12,2.94,1.17,3.46,2.67s0.11,3.17-1.06,4.25
		c-39.2,36.31-98.16,74.05-157.7,100.95c-31.06,14.03-83.8,34.62-125.64,34.63c-9.08,0-17.64-0.97-25.36-3.19
		c-1.66-0.47-2.82-1.95-2.9-3.67c-0.07-1.71,0.96-3.29,2.56-3.91c42.23-16.26,110.47-52.23,195.73-131.21
		c43.3-40.11,73.81-75.52,82.28-85.6c-4.42-3.55-10.04-5.44-15.83-5.19c-1.53,5.6-5.04,10.35-10.02,13.41
		c-10.57,6.5-24.19,3.47-31.01-6.89l-2.22-3.37c-5.48-8.33-7.38-18.3-5.34-28.07c2.03-9.76,7.76-18.14,16.11-23.59
		c8.44-5.5,18.5-7.34,28.33-5.18c9.84,2.16,18.2,8.04,23.56,16.57l12.07,19.79l54.03-84.3c14.02-21.88,39.75-34.07,65.55-31.04
		c9.12,1.07,17.27,5.34,23.34,11.63c0.97-2.44,2.43-4.69,4.34-6.6C451.113,39.879,463.533,39.879,471.163,47.509z M465.503,69.529
		c4.52-4.51,4.52-11.85,0-16.36c-2.25-2.26-5.22-3.39-8.18-3.39s-5.93,1.13-8.18,3.39c-2.94,2.93-3.95,7.07-3.06,10.85
		c0.59,1.2,1.12,2.44,1.59,3.71c0.42,0.64,0.91,1.24,1.47,1.8C453.653,74.049,460.993,74.049,465.503,69.529z M423.963,108.889
		c11.92-5.4,19.12-17.78,17.91-30.81c-0.22-2.41-0.73-4.73-1.49-6.95c-0.8-1.38-1.43-2.84-1.87-4.37
		c-4.61-8.79-13.36-15.13-23.64-16.33c-1.15-0.14-2.31-0.23-3.46-0.29c5.09,10.53,13.97,33.42,10.73,59.57L423.963,108.889z
		 M413.423,113.659c5.49-29.36-6.95-55.9-10.92-63.38c-7.3,0.67-14.4,2.67-20.93,5.83c21.32,24.9,24.8,49.15,25.1,60.6
		L413.423,113.659z M398.633,120.349c0.23-7.53-0.89-33.72-24.15-60.21c-6.91,4.56-12.91,10.54-17.5,17.7l-8.56,13.35
		c7.45,5.15,25.26,18.68,34.93,36.08c0.25-0.11,0.49-0.23,0.74-0.35L398.633,120.349z M387.753,240.909
		c1.6-7.67,0.11-15.5-4.2-22.04l-2.21-3.37c-4.43-6.73-13.28-8.69-20.14-4.47c-3.41,2.1-5.78,5.4-6.67,9.29
		c-0.9,3.9-0.21,7.91,1.93,11.28l2.63,4.13c3.29-1.59,6-4.14,7.78-7.41c1.06-1.94,3.49-2.66,5.43-1.6c1.94,1.05,2.66,3.48,1.6,5.42
		c-3.27,6.02-8.69,10.4-15.25,12.33c-2.41,0.71-4.86,1.06-7.3,1.06c-4.22,0-8.4-1.05-12.21-3.13c-1.94-1.05-2.66-3.48-1.6-5.42
		c1.05-1.94,3.48-2.66,5.42-1.6c2.44,1.32,5.09,2.02,7.78,2.12l-1.02-1.61c-2-3.14-3.18-6.64-3.49-10.24
		c-0.08,0-0.17,0.01-0.25,0.01c-11.3,0-21.98-6.11-27.61-16.17l-41.02-67.25c-4.18-6.65-10.75-11.27-18.47-12.97
		c-7.72-1.69-15.62-0.25-22.25,4.07c-6.56,4.28-11.05,10.86-12.65,18.53c-1.6,7.67-0.11,15.49,4.2,22.04l2.21,3.36
		c4.43,6.73,13.28,8.7,20.14,4.47c3.41-2.09,5.78-5.39,6.67-9.29c0.9-3.9,0.21-7.9-1.94-11.28l-2.63-4.13
		c-3.28,1.59-6,4.14-7.78,7.41c-0.72,1.34-2.09,2.09-3.51,2.09c-0.65,0-1.3-0.15-1.91-0.48c-1.94-1.06-2.66-3.49-1.6-5.43
		c6.75-12.41,22.35-17.01,34.76-10.26c1.94,1.05,2.66,3.48,1.6,5.42c-1.05,1.94-3.48,2.66-5.42,1.61c-2.44-1.33-5.09-2.03-7.78-2.13
		l1.02,1.61c2,3.14,3.18,6.64,3.49,10.24c11.39-0.09,22.19,6.03,27.86,16.17l41.02,67.24c4.18,6.66,10.75,11.28,18.47,12.97
		c7.72,1.7,15.62,0.25,22.25-4.07C381.663,255.149,386.153,248.569,387.753,240.909z M371.603,134.159c1.52-1.1,3.09-2.13,4.7-3.11
		c-8.72-15.61-25.21-28.22-32.2-33.11l-10.23,15.96C351.103,117.219,365.853,129.029,371.603,134.159z M344.953,169.929
		c4.07-11.75,11.08-22.32,20.31-30.66c-6.19-5.32-20.56-16.23-36.11-18.01l-17.03,26.58
		C325.623,151.949,338.273,163.199,344.953,169.929z M340.923,193.099c0.05-4.81,0.58-9.55,1.55-14.16
		c-4.45-4.86-19.86-20.65-34.88-24.03l-6.74,10.5l1.79,2.92l5.46-6.23c1.45-1.66,3.98-1.82,5.64-0.37c1.66,1.46,1.83,3.99,0.37,5.65
		l-7.11,8.11l3.62,5.93l7.89-8.93c1.46-1.65,3.99-1.81,5.64-0.35c1.66,1.46,1.82,3.99,0.35,5.65l-9.52,10.78l4.44,7.27l6.65-7.28
		c1.49-1.63,4.02-1.74,5.65-0.25c1.63,1.49,1.75,4.02,0.25,5.65l-8.21,8.99l1.48,2.44c0.03,0.04,0.06,0.09,0.08,0.14
		c1.07,1.92,2.4,3.64,3.91,5.16C336.193,207.669,340.843,200.759,340.923,193.099z M301.323,211.699l-6.24-10.23
		c-6.49,4.18-23.84,17.11-25.67,36.75c-0.19,2.07-1.93,3.63-3.98,3.63c-0.12,0-0.25-0.01-0.37-0.02c-2.2-0.2-3.82-2.15-3.61-4.35
		c2.18-23.48,21.95-38.11,29.45-42.86c0,0-4.83-7.92-4.99-8.19c-7.28,8.61-26.38,30.64-53.57,57.83c3.67,1.09,7.08,3.02,9.93,5.68
		c4.37,4.08,7.1,9.58,7.76,15.46l4.6,0.74c12.56,2.05,21.54,13.18,20.89,25.89v0.05c8.86-6.76,17.22-13.6,24.93-20.43
		c-4.4-1.56-8.42-4.09-11.76-7.42c-5.98-5.98-9.28-13.94-9.27-22.4c0-8.47,3.3-16.43,9.28-22.41
		C292.303,215.819,296.593,213.219,301.323,211.699z M267.533,291.619c0.44-8.63-5.66-16.19-14.19-17.58l-7.8-1.27
		c-1.97-0.32-3.4-2.03-3.36-4.02v-0.28c0.09-4.79-1.87-9.41-5.37-12.68c-3.13-2.93-7.27-4.53-11.52-4.55
		c-6.77,6.65-13.97,13.54-21.57,20.57c-78.1,72.35-142.27,109.07-185.53,127.62c59.84,5.67,171.27-44.22,249-101.13L267.533,291.619
		z"/>
	<path d="M234.593,282.019c1.45,1.67,1.28,4.2-0.39,5.65c-46.91,40.81-115.08,77.23-115.76,77.6c-0.6,0.31-1.24,0.46-1.88,0.46
		c-1.43,0-2.81-0.77-3.53-2.12c-1.04-1.95-0.3-4.37,1.65-5.41c0.68-0.36,68.06-36.36,114.27-76.57
		C230.623,280.179,233.143,280.359,234.593,282.019z"/>
	<path d="M184.913,392.499c6.51,8.97,9.67,15.77,9.67,20.78c0,12.03-9.78,21.82-21.81,21.82s-21.82-9.79-21.82-21.82
		c0-5.01,3.17-11.81,9.67-20.78c4.53-6.25,9-11.19,9.18-11.4c0.76-0.83,1.84-1.31,2.97-1.31c1.13,0,2.2,0.48,2.96,1.31
		C175.923,381.309,180.383,386.249,184.913,392.499z M172.773,427.099c7.61,0,13.81-6.2,13.81-13.82c0-4.94-7.33-15.62-13.81-23.39
		c-6.49,7.78-13.82,18.46-13.82,23.39C158.953,420.899,165.153,427.099,172.773,427.099z"/>
</g>
<g>
</g>
<g>
</g>
<g>
</g>
<g>
</g>
<g>
</g>
<g>
</g>
<g>
</g>
<g>
</g>
<g>
</g>
<g>
</g>
<g>
</g>
<g>
</g>
<g>
</g>
<g>
</g>
<g>
</g>
</svg>
