<?xml version="1.0" encoding="iso-8859-1"?>
<!-- Generator: Adobe Illustrator 19.0.0, SVG Export Plug-In . SVG Version: 6.00 Build 0)  -->
<svg version="1.1" id="Layer_1" xmlns="http://www.w3.org/2000/svg" xmlns:xlink="http://www.w3.org/1999/xlink" x="0px" y="0px"
	 viewBox="0 0 504.32 504.32" style="enable-background:new 0 0 504.32 504.32;" xml:space="preserve">
<g transform="translate(1 1)">
	<path style="fill:#FFD0A1;" d="M95.427,448.707L161.133,383l-42.667-42.667L52.76,406.04l-14.507-14.507
		c-3.413-3.413-8.533-3.413-11.947,0L6.68,411.16c-3.413,3.413-3.413,8.533,0,11.947l72.533,72.533
		c3.413,3.413,8.533,3.413,11.947,0l19.627-19.627c3.413-3.413,3.413-9.387-1.707-13.653L95.427,448.707L95.427,448.707z
		 M74.093,427.374L52.76,406.04l0,0l0,0L74.093,427.374z"/>
	<g>
		<path style="fill:#ECF4F7;" d="M173.933,327.533L173.933,327.533L203.8,357.4l0,0l46.933-46.933L220.867,280.6L173.933,327.533
			L173.933,327.533L173.933,327.533l46.933-46.933L191,250.733l-46.933,46.933l0,0L173.933,327.533L173.933,327.533z M498.2,3.267
			l-17.067,76.8L310.467,250.733L280.6,220.867L498.2,3.267z M498.2,3.267l-217.6,217.6L250.733,191L421.4,20.333L498.2,3.267z"/>
		<path style="fill:#ECF4F7;" d="M357.4,297.667l-29.867,29.867L3.267,3.267l76.8,17.067L250.733,191l29.867,29.867l29.867,29.867
			L357.4,297.667z M327.533,327.533L297.667,357.4l-46.933-46.933L220.867,280.6L191,250.733L20.333,80.067L3.267,3.267
			L327.533,327.533z"/>
	</g>
	<path style="fill:#AE938D;" d="M203.8,357.4l29.867,29.867c-22.187,22.187-45.227,23.04-68.267,0L161.133,383l0,0l-42.667-42.667
		l-4.267-4.267c-22.187-22.187-23.04-45.227,0-68.267l29.867,29.867l29.867,29.867L203.8,357.4z M357.4,297.667l29.867-29.867
		c23.04,22.187,23.04,45.227,0,68.267L383,340.333l0,0L340.333,383l-4.267,4.267c-22.187,22.187-45.227,23.04-68.267,0
		l29.867-29.867l29.867-29.867L357.4,297.667z"/>
	<path style="fill:#FFD0A1;" d="M406.893,448.707l41.813-41.813L383,341.187l0,0l-42.667,42.667L406.893,448.707L406.893,448.707
		l-15.36,15.36c-3.413,3.413-3.413,8.533,0,11.947l19.627,19.627c3.413,3.413,8.533,3.413,11.947,0l72.533-72.533
		c3.413-3.413,3.413-8.533,0-11.947l-19.627-19.627c-3.413-3.413-9.387-3.413-13.653,1.707l-12.8,12.8
		C448.707,406.04,406.893,448.707,406.893,448.707z"/>
</g>
<path style="fill:#51565F;" d="M418.133,503.467c-3.413,0-6.827-1.707-9.387-3.413l-19.627-19.627c-5.12-5.12-5.12-12.8,0-17.92
	l11.947-11.947l-59.733-59.733l-0.853,0.853c-23.893,23.893-50.347,23.893-74.24,0c-1.707-1.707-1.707-4.267,0-5.973L385.707,266.24
	c1.707-1.707,4.267-1.707,5.973,0c11.947,11.947,17.92,24.747,17.92,36.693c0,12.8-5.973,24.747-17.92,37.547l-0.853,0.853
	l59.733,59.733l10.24-10.24c6.827-6.827,15.36-6.827,20.48-1.707l19.627,19.627c2.56,2.56,3.413,5.973,3.413,9.387
	c0,3.413-1.707,6.827-3.413,9.387l-72.533,72.533C424.96,501.76,421.547,503.467,418.133,503.467z M347.307,384l63.147,63.147
	c1.707,1.707,1.707,4.267,0,5.973l-14.507,14.507c-1.707,1.707-1.707,4.267,0,5.973l19.627,19.627c1.707,1.707,4.267,1.707,5.973,0
	l72.533-72.533c0.853-0.853,0.853-1.707,0.853-3.413s-0.853-2.56-0.853-3.413l-19.627-19.627c-1.707-1.707-5.12-0.853-7.68,1.707
	l-12.8,12.8l0,0l0,0l-19.627,19.627c-1.707,1.707-4.267,1.707-5.973,0c-1.707-1.707-1.707-4.267,0-5.973l16.213-16.213
	L381.44,343.04c-1.707-1.707-1.707-4.267,0-5.973l4.267-4.267c10.24-10.24,16.213-21.333,16.213-31.573
	c0-9.387-4.267-18.773-12.8-28.16L275.627,386.56c9.387,8.533,18.773,12.8,28.16,12.8l0,0c10.24,0,20.48-5.12,30.72-15.36l25.6-25.6
	c1.707-1.707,4.267-1.707,5.973,0c1.707,1.707,1.707,4.267,0,5.973L347.307,384z M85.333,503.467c-3.413,0-6.827-1.707-9.387-3.413
	L3.413,427.52C0.853,424.96,0,421.547,0,418.133s1.707-6.827,3.413-9.387L23.04,389.12c5.12-5.12,12.8-5.12,17.92,0l11.947,11.947
	l59.733-59.733l-0.853-0.853c-23.893-23.893-23.893-50.347,0-74.24c1.707-1.707,4.267-1.707,5.973,0l119.467,119.467
	c0.853,0.853,0.853,1.707,0.853,3.413s-0.853,2.56-0.853,3.413c-23.893,23.893-50.347,23.893-74.24,0l-0.853-0.853L102.4,451.413
	l10.24,10.24c6.827,6.827,6.827,15.36,1.707,20.48L94.72,501.76C92.16,501.76,88.747,503.467,85.333,503.467z M32.427,394.24
	c-0.853,0-2.56,0-2.56,0.853L10.24,414.72c-0.853,0.853-0.853,1.707-0.853,3.413s0.853,2.56,0.853,3.413l72.533,72.533
	c1.707,1.707,4.267,1.707,5.973,0l19.627-19.627c1.707-1.707,0.853-5.12-1.707-7.68l-12.8-12.8l0,0l0,0L74.24,434.347
	c-1.707-1.707-1.707-4.267,0-5.973c1.707-1.707,4.267-1.707,5.973,0l16.213,16.213l63.147-63.147c1.707-1.707,4.267-1.707,5.973,0
	l4.267,4.267c20.48,20.48,39.253,21.333,58.88,2.56L115.2,274.774c-17.92,19.627-17.067,39.253,2.56,58.88l25.6,25.6
	c1.707,1.707,1.707,4.267,0,5.973c-1.707,1.707-4.267,1.707-5.973,0l-17.92-18.773L56.32,409.6c-1.707,1.707-4.267,1.707-5.973,0
	L35.84,395.093C34.987,394.24,34.133,394.24,32.427,394.24z M226.133,341.333c-0.853,0-2.56,0-3.413-0.853
	c-1.707-1.707-1.707-4.267,0-5.973l22.187-22.187l-23.893-23.893l-22.187,22.187c-1.707,1.707-4.267,1.707-5.973,0
	c-1.707-1.707-1.707-4.267,0-5.973l22.187-22.187l-23.893-23.893l-22.187,22.187c-1.707,1.707-4.267,1.707-5.973,0
	c-1.707-1.707-1.707-4.267,0-5.973l22.187-22.187L17.92,85.333c-0.853-0.853-0.853-1.707-0.853-1.707L0,6.826V5.973l0,0l0,0
	c0,0,0,0,0-0.853s0.853-1.707,0.853-2.56l0,0l0,0l0,0l0,0l0,0l0,0c0.853-0.853,1.707-0.853,2.56-0.853l0,0l0,0l0,0h0.853
	l76.8,17.067c0.853,0,1.707,0.853,1.707,0.853l256,256c1.707,1.707,1.707,4.267,0,5.973c-1.707,1.707-4.267,1.707-5.973,0
	L77.653,26.453L16.213,12.8l292.693,292.693c1.707,1.707,1.707,4.267,0,5.973c-1.707,1.707-4.267,1.707-5.973,0L10.24,18.773
	l13.653,61.44l169.813,169.813l0,0l0,0l29.867,29.867l0,0l0,0l29.867,29.867l0,0l0,0l25.6,25.6c1.707,1.707,1.707,4.267,0,5.973
	c-1.707,1.707-4.267,1.707-5.973,0l-22.187-22.187l-22.187,22.187C228.693,341.333,226.987,341.333,226.133,341.333z M337.067,230.4
	c-0.853,0-2.56,0-3.413-0.853c-1.707-1.707-1.707-4.267,0-5.973L477.867,79.36l13.653-61.44L309.76,199.68
	c-1.707,1.707-4.267,1.707-5.973,0s-1.707-4.267,0-5.973l181.76-181.76L424.107,25.6L279.893,169.813
	c-1.707,1.707-4.267,1.707-5.973,0s-1.707-4.267,0-5.973L418.987,18.773c0.853-0.853,1.707-0.853,1.707-0.853l76.8-17.067h0.853l0,0
	l0,0c0,0,0,0,0.853,0l0,0l0,0c0.853,0,1.707,0.853,2.56,0.853l0,0l0,0l0,0l0,0l0,0c0.853,0.853,0.853,1.707,0.853,2.56
	c0,0,0,0,0,0.853l0,0l0,0v0.853l-17.067,76.8c0,0.853-0.853,1.707-0.853,1.707L339.627,229.546
	C339.627,230.4,337.92,230.4,337.067,230.4z"/>
<g>
</g>
<g>
</g>
<g>
</g>
<g>
</g>
<g>
</g>
<g>
</g>
<g>
</g>
<g>
</g>
<g>
</g>
<g>
</g>
<g>
</g>
<g>
</g>
<g>
</g>
<g>
</g>
<g>
</g>
</svg>
